<svg width="148" height="32" viewBox="0 0 148 32" fill="none" xmlns="http://www.w3.org/2000/svg">
<path d="M17.1446 15.9991L5.83083 27.3128L8.65924 30.1412C10.0735 31.5554 12.9018 31.5555 14.316 30.1413L25.6297 18.8275C27.0439 17.4133 27.0441 14.5848 25.6297 13.1707L19.9731 7.51375L14.3162 13.1707L17.1446 15.9991Z" fill="#31007A"/>
<path d="M5.83105 4.68542L8.65948 1.857C10.0737 0.442784 12.9021 0.442784 14.3163 1.857L17.1448 4.68542L11.4879 10.3423L5.83105 4.68542Z" fill="#8700B8"/>
<path d="M132.002 17.999L136.002 17.999V11.999L148.002 11.999V9.99902C148.002 8.99902 147.002 7.99902 146.002 7.99902H134.002C133.002 7.99902 132.002 8.99902 132.002 9.99902V17.999Z" fill="#31007A"/>
<path d="M136.002 23.999H134.002C133.002 23.999 132.002 22.999 132.002 21.999V19.999L136.002 19.999L136.002 23.999Z" fill="#8700B8"/>
<path d="M117.002 19.999V17.3324H127.002V14.6657L117.002 14.6657L117.002 11.999L129.002 11.999V9.99902C129.002 8.99902 128.002 7.99902 127.002 7.99902H115.002C114.002 7.99902 113.002 8.99902 113.002 9.99902V21.999C113.002 22.999 114.002 23.999 115.002 23.999H127.002C128.002 23.999 129.002 22.999 129.002 21.999V19.999H117.002Z" fill="#31007A"/>
<path d="M95.0024 19.999H99.0024V23.999H97.0024C96.0024 23.999 95.0024 22.999 95.0024 21.999V19.999Z" fill="#31007A"/>
<path fill-rule="evenodd" clip-rule="evenodd" d="M97.0024 7.99902C96.0024 7.99902 95.0024 8.99902 95.0024 9.99902V19.999H105.002C109.002 19.999 111.002 16.999 111.002 13.999C111.002 10.999 109.002 7.99902 105.002 7.99902H97.0024ZM105.002 11.999H99.0024V15.999H105.002C106.502 15.999 107.002 14.7354 107.002 13.999C107.002 13.2626 106.502 11.999 105.002 11.999Z" fill="#31007A"/>
<path d="M92.0024 9.99902C92.0024 8.99902 91.0024 7.99902 90.0024 7.99902H78.0024C77.0024 7.99902 76.0024 8.99902 76.0024 9.99902V21.999C76.0024 22.999 77.0024 23.999 78.0024 23.999H80.0024L80.0024 11.999L82.5024 11.999V23.999H85.5024V11.999H88.0024L88.0024 23.999H90.0024C91.0024 23.999 92.0024 22.999 92.0024 21.999C92.0024 20.999 92.0024 9.99902 92.0024 9.99902Z" fill="#31007A"/>
<path d="M57.0029 9.99902C57.0029 8.99902 58.0027 7.99902 59.0027 7.99963H61.0029V19.9996H69.0029V7.99963L71.0027 7.99963C72.0027 7.99963 73.0029 8.99902 73.0029 9.99902V21.999C73.0029 22.999 72.0027 23.9996 71.0027 23.9996H59.0027C58.0027 23.9996 57.0029 22.999 57.0029 21.999V9.99902Z" fill="#31007A"/>
<path d="M50.0068 7.99963H52.0028C53.0028 7.99963 54.0028 8.99902 54.0028 9.99902L54.0068 11.9996H50.0068V7.99963Z" fill="#8700B8"/>
<path d="M54.0065 13.9991H50.0065V19.9997H38.0065L38.0024 21.9991C38.0024 22.9991 39.0024 23.9997 40.0024 23.9997H52.0024C53.0024 23.9997 54.0065 22.9991 54.0024 21.9991L54.0065 13.9991Z" fill="#31007A"/>
</svg>
