<svg width="148" height="32" viewBox="0 0 148 32" fill="none" xmlns="http://www.w3.org/2000/svg">
<path d="M17.1412 15.9989L5.82741 27.3126L8.65582 30.1411C10.07 31.5553 12.8984 31.5553 14.3126 30.1411L25.6263 18.8274C27.0405 17.4132 27.0407 14.5846 25.6263 13.1706L19.9696 7.51363L14.3128 13.1706L17.1412 15.9989Z" fill="#BEA0EB"/>
<path d="M5.82715 4.6853L8.65558 1.85688C10.0698 0.442662 12.8982 0.442662 14.3124 1.85688L17.1409 4.6853L11.484 10.3422L5.82715 4.6853Z" fill="#D35CFF"/>
<path d="M132.003 17.999L136.003 17.999V11.999L148.003 11.999V9.99902C148.003 8.99902 147.003 7.99902 146.003 7.99902H134.003C133.003 7.99902 132.003 8.99902 132.003 9.99902V17.999Z" fill="#BEA0EB"/>
<path d="M136.002 23.999H134.002C133.002 23.999 132.002 22.999 132.002 21.999V19.999L136.002 19.999L136.002 23.999Z" fill="#D35CFF"/>
<path d="M117.003 19.999V17.3324H127.003V14.6657L117.003 14.6657L117.003 11.999L129.003 11.999V9.99902C129.003 8.99902 128.003 7.99902 127.003 7.99902H115.003C114.003 7.99902 113.003 8.99902 113.003 9.99902V21.999C113.003 22.999 114.003 23.999 115.003 23.999H127.003C128.003 23.999 129.003 22.999 129.003 21.999V19.999H117.003Z" fill="#BEA0EB"/>
<path d="M95.0029 19.999H99.0029V23.999H97.0029C96.0029 23.999 95.0029 22.999 95.0029 21.999V19.999Z" fill="#BEA0EB"/>
<path fill-rule="evenodd" clip-rule="evenodd" d="M97.0029 7.99902C96.0029 7.99902 95.0029 8.99902 95.0029 9.99902V19.999H105.003C109.003 19.999 111.003 16.999 111.003 13.999C111.003 10.999 109.003 7.99902 105.003 7.99902H97.0029ZM105.003 11.999H99.0029V15.999H105.003C106.503 15.999 107.003 14.7354 107.003 13.999C107.003 13.2626 106.503 11.999 105.003 11.999Z" fill="#BEA0EB"/>
<path d="M92.0029 9.99902C92.0029 8.99902 91.0029 7.99902 90.0029 7.99902H78.0029C77.0029 7.99902 76.0029 8.99902 76.0029 9.99902V21.999C76.0029 22.999 77.0029 23.999 78.0029 23.999H80.0029L80.0029 11.999L82.5029 11.999V23.999H85.5029V11.999H88.0029L88.0029 23.999H90.0029C91.0029 23.999 92.0029 22.999 92.0029 21.999C92.0029 20.999 92.0029 9.99902 92.0029 9.99902Z" fill="#BEA0EB"/>
<path d="M57.0029 9.99902C57.0029 8.99902 58.0027 7.99902 59.0027 7.99963H61.0029V19.9996H69.0029V7.99963L71.0027 7.99963C72.0027 7.99963 73.0029 8.99902 73.0029 9.99902V21.999C73.0029 22.999 72.0027 23.9996 71.0027 23.9996H59.0027C58.0027 23.9996 57.0029 22.999 57.0029 21.999V9.99902Z" fill="#BEA0EB"/>
<path d="M50.0068 7.99963H52.0028C53.0028 7.99963 54.0028 8.99902 54.0028 9.99902L54.0068 11.9996H50.0068V7.99963Z" fill="#D35CFF"/>
<path d="M54.007 13.9991H50.007V19.9997H38.007L38.0029 21.9991C38.0029 22.9991 39.0029 23.9997 40.0029 23.9997H52.0029C53.0029 23.9997 54.007 22.9991 54.0029 21.9991L54.007 13.9991Z" fill="#BEA0EB"/>
</svg>
